<?xml version="1.0" standalone="no"?>
<!DOCTYPE svg PUBLIC "-//W3C//DTD SVG 20010904//EN"
 "http://www.w3.org/TR/2001/REC-SVG-20010904/DTD/svg10.dtd">
<svg version="1.0" xmlns="http://www.w3.org/2000/svg"
 width="700.000000pt" height="700.000000pt" viewBox="0 0 700.000000 700.000000"
 preserveAspectRatio="xMidYMid meet">
<metadata>
Created by potrace 1.14, written by Peter Selinger 2001-2017
</metadata>
<g transform="translate(0.000000,700.000000) scale(0.100000,-0.100000)"
fill="#000000" stroke="none">
<path d="M3250 6989 c-122 -13 -175 -21 -250 -35 -113 -20 -133 -24 -152 -30
-9 -3 -26 -7 -38 -9 -12 -2 -81 -23 -153 -46 -427 -134 -812 -368 -1134 -688
-62 -61 -138 -144 -170 -184 -32 -39 -61 -74 -64 -77 -3 -3 -35 -45 -70 -95
-283 -393 -458 -861 -506 -1350 -10 -100 -10 -453 0 -560 7 -74 31 -246 42
-305 69 -359 173 -670 339 -1015 180 -371 386 -693 681 -1060 173 -215 267
-318 519 -570 192 -191 278 -273 397 -375 35 -30 79 -69 99 -86 183 -160 587
-461 657 -490 66 -28 102 -16 233 79 36 26 76 55 89 65 275 194 628 498 931
802 237 237 250 250 400 425 700 810 1119 1708 1188 2545 9 114 9 456 -1 553
-92 934 -666 1775 -1503 2204 -254 130 -506 217 -779 268 -185 35 -590 53
-755 34z m485 -273 c159 -16 420 -67 490 -95 11 -5 47 -16 80 -26 33 -11 107
-39 165 -63 559 -234 1021 -664 1291 -1203 69 -137 150 -345 174 -449 2 -8 10
-40 19 -70 8 -30 17 -72 20 -94 4 -21 8 -41 10 -45 3 -4 8 -34 11 -66 4 -33 9
-62 10 -65 16 -27 23 -379 11 -550 -47 -683 -347 -1411 -867 -2105 -284 -380
-660 -780 -1034 -1100 -38 -33 -77 -67 -85 -74 -82 -79 -510 -401 -532 -401
-16 0 -264 185 -428 318 -275 225 -541 474 -780 732 -58 62 -112 120 -120 129
-42 44 -170 202 -269 331 -61 80 -115 150 -120 155 -4 6 -48 71 -98 146 -272
406 -471 822 -584 1224 -22 77 -42 151 -44 165 -2 14 -13 68 -24 120 -10 52
-22 122 -26 155 -4 33 -9 71 -11 85 -9 66 -18 227 -18 340 0 265 36 504 115
755 176 556 535 1025 1034 1353 110 72 300 173 410 216 39 16 79 32 90 37 96
41 370 111 485 125 30 3 58 8 61 10 3 2 50 6 105 10 54 3 100 7 102 9 5 5 290
-3 357 -9z"/>
<path d="M3387 6214 c-1 -1 -33 -4 -72 -8 -76 -6 -254 -34 -265 -41 -4 -2 -22
-7 -41 -10 -73 -12 -280 -90 -399 -149 -273 -135 -468 -292 -695 -560 -37 -44
-144 -207 -187 -286 -101 -185 -190 -449 -214 -630 -2 -19 -7 -46 -10 -60 -14
-57 -13 -426 2 -524 52 -363 192 -693 413 -971 30 -38 60 -75 66 -81 5 -6 29
-32 52 -57 56 -61 214 -200 272 -240 25 -17 48 -34 51 -37 12 -15 188 -115
283 -160 176 -84 419 -155 602 -176 33 -3 69 -8 80 -10 28 -6 309 -4 370 2
386 38 764 193 1076 442 88 70 266 255 340 354 187 251 317 550 369 848 6 36
14 76 17 90 10 47 12 435 2 495 -8 51 -16 96 -45 250 -18 95 -127 371 -190
477 -19 33 -34 61 -34 63 0 8 -115 172 -154 220 -357 436 -825 691 -1381 751
-53 6 -303 12 -308 8z m373 -289 c408 -77 705 -229 975 -500 151 -151 267
-321 356 -520 57 -129 111 -307 124 -414 4 -30 9 -63 12 -75 14 -60 9 -337 -8
-446 -26 -168 -28 -175 -65 -290 -199 -603 -705 -1047 -1334 -1170 -171 -34
-461 -34 -638 0 -536 101 -1009 459 -1239 937 -93 193 -131 314 -168 538 -12
74 -12 349 0 440 20 140 25 162 61 282 142 468 476 856 918 1067 146 69 359
133 506 151 30 4 57 8 58 10 7 6 406 -3 442 -10z"/>
<path d="M3439 5239 c-26 -13 -58 -50 -115 -134 -43 -64 -117 -170 -164 -237
l-85 -121 -130 -39 c-71 -21 -152 -45 -180 -53 -198 -55 -238 -70 -266 -97
-31 -32 -45 -80 -34 -126 3 -17 85 -132 180 -257 l174 -226 -6 -222 c-10 -340
-9 -358 11 -393 24 -40 68 -66 114 -67 22 0 141 37 294 91 141 51 262 92 270
92 14 0 31 -6 193 -65 55 -20 127 -45 160 -56 33 -11 69 -24 80 -29 125 -51
196 -41 241 34 20 34 21 66 9 442 l-5 172 170 221 c94 122 175 233 180 247 14
36 12 71 -6 109 -27 57 -11 51 -448 177 l-149 43 -36 50 c-21 28 -77 109 -126
180 -183 270 -184 271 -255 279 -22 2 -49 -3 -71 -15z m179 -533 c62 -91 125
-174 140 -184 26 -19 50 -28 162 -58 149 -40 250 -76 243 -87 -4 -7 -57 -77
-119 -157 -61 -80 -117 -156 -124 -169 -12 -23 -14 -168 -6 -388 1 -35 1 -63
-2 -63 -2 0 -88 30 -190 66 -103 37 -203 67 -223 67 -20 0 -67 -12 -105 -26
-194 -72 -296 -107 -303 -103 -4 3 -6 40 -5 83 6 204 6 330 0 350 -4 12 -63
95 -131 184 -68 90 -121 167 -119 171 3 4 11 8 18 8 6 0 95 25 196 55 216 63
194 46 345 268 55 81 102 147 106 147 3 0 56 -74 117 -164z"/>
</g>
</svg>
