<svg id="Capa_1" enable-background="new 0 0 510.272 510.272" height="512" viewBox="0 0 510.272 510.272" width="512" xmlns="http://www.w3.org/2000/svg"><g><path d="m399.145 66.5 44.811-44.811-21.213-21.212-44.811 44.811c-33.052-28.221-75.9-45.288-122.666-45.288-104.307 0-189.166 84.86-189.166 189.167-.617 38.922 14.714 88.909 37.203 130.751l-36.726 36.726 21.213 21.213 30.835-30.835c10.927 18.045 23.485 36.448 37.608 55.065 55.239 70.664 80.812 90.894 99.034 108.186 98.682-89.48 271.042-295.307 143.878-443.773zm-303.045 122.667c0-87.765 71.401-159.167 159.166-159.167 38.493 0 73.836 13.737 101.39 36.564l-46.265 46.265c-36.787-26.595-88.605-23.354-121.711 9.752-33.106 33.105-36.347 84.924-9.752 121.71l-53.348 53.349c-17.539-35.373-29.48-72.62-29.48-108.473zm204.539 45.373c-21.366 21.366-54.168 24.469-78.875 9.342l88.217-88.217c15.127 24.707 12.024 57.509-9.342 78.875zm-90.746-90.746c12.509-12.509 28.941-18.764 45.373-18.764 11.634 0 23.26 3.151 33.502 9.422l-88.217 88.217c-15.127-24.708-12.024-57.509 9.342-78.875zm45.368 325.438c-22.099-21.74-75.832-77.753-114.764-144.084l59.644-59.644c16.388 11.848 35.753 17.785 55.125 17.785 24.114 0 48.228-9.179 66.586-27.537 33.106-33.105 36.347-84.924 9.752-121.71l46.265-46.265c111.614 129.387-63.758 324.452-122.608 381.455z"/></g></svg>